HIERARCHY
ROOT Hips
{
  OFFSET 0 0 0
  CHANNELS 6 Xposition Yposition Zposition Zrotation Xrotation Yrotation
  JOINT Spine
  {
    OFFSET 0 10.1816 0.131521
    CHANNELS 3 Zrotation Xrotation Yrotation
    JOINT Spine1
    {
      OFFSET 0 10.0835 -1.0008
      CHANNELS 3 Zrotation Xrotation Yrotation
      JOINT Spine2
      {
        OFFSET 0 9.10001 -1.37342
        CHANNELS 3 Zrotation Xrotation Yrotation
        JOINT Neck
        {
          OFFSET 0 16.6717 -2.51617
          CHANNELS 3 Zrotation Xrotation Yrotation
          JOINT Head
          {
            OFFSET 0 9.61788 1.68501
            CHANNELS 3 Zrotation Xrotation Yrotation
            End Site
            {
              OFFSET 0 0 0
            }
          }
        }
        JOINT LeftShoulder
        {
          OFFSET 4.57045 10.946 -2.62799
          CHANNELS 3 Zrotation Xrotation Yrotation
          JOINT LeftArm
          {
            OFFSET 10.5924 -0.524583 -2.23212
            CHANNELS 3 Zrotation Xrotation Yrotation
            JOINT LeftForeArm
            {
              OFFSET 27.8415 -8.94286e-05 3.74589e-05
              CHANNELS 3 Zrotation Xrotation Yrotation
              JOINT LeftHand
              {
                OFFSET 28.3288 -1.74407e-05 3.78045e-05
                CHANNELS 3 Zrotation Xrotation Yrotation
                End Site
                {
                  OFFSET 0 0 0
                }
              }
            }
          }
        }
        JOINT RightShoulder
        {
          OFFSET -4.56997 10.9462 -2.62802
          CHANNELS 3 Zrotation Xrotation Yrotation
          JOINT RightArm
          {
            OFFSET -10.5928 -0.524798 -2.2321
            CHANNELS 3 Zrotation Xrotation Yrotation
            JOINT RightForeArm
            {
              OFFSET -27.8415 -3.30792e-05 1.16763e-05
              CHANNELS 3 Zrotation Xrotation Yrotation
              JOINT RightHand
              {
                OFFSET -28.3288 0 5.5816e-05
                CHANNELS 3 Zrotation Xrotation Yrotation
                End Site
                {
                  OFFSET 0 0 0
                }
              }
            }
          }
        }
      }
    }
  }
  JOINT LeftUpLeg
  {
    OFFSET 8.20778 -6.75171 -1.59956
    CHANNELS 3 Zrotation Xrotation Yrotation
    JOINT LeftLeg
    {
      OFFSET 0 -44.3705 0.284643
      CHANNELS 3 Zrotation Xrotation Yrotation
      JOINT LeftFoot
      {
        OFFSET 0 -44.4279 -2.98219
        CHANNELS 3 Zrotation Xrotation Yrotation
        JOINT LeftToeBase
        {
          OFFSET 0 -8.72867 10.7106
          CHANNELS 3 Zrotation Xrotation Yrotation
          End Site
          {
            OFFSET 0 0 0
          }
        }
      }
    }
  }
  JOINT RightUpLeg
  {
    OFFSET -8.2078 -6.75166 -1.59956
    CHANNELS 3 Zrotation Xrotation Yrotation
    JOINT RightLeg
    {
      OFFSET 0 -44.3705 0.286156
      CHANNELS 3 Zrotation Xrotation Yrotation
      JOINT RightFoot
      {
        OFFSET 0 -44.4277 -2.98379
        CHANNELS 3 Zrotation Xrotation Yrotation
        JOINT RightToeBase
        {
          OFFSET 0 -8.72867 10.7106
          CHANNELS 3 Zrotation Xrotation Yrotation
          End Site
          {
            OFFSET 0 0 0
          }
        }
      }
    }
  }
}
MOTION
Frames:	11
Frame Time:	0.0333333
-0.285057 104.087 2.67908 -0.753884 0.555235 -2.53274 -0.794026 -0.0542054 0.396491 -0.345056 -0.195201 0.944613 1.74285 -0.154805 1.31446 3.87708 8.09005 0.088884 -5.41981 -8.6529 -3.06974 -10.0671 -2.70244 -10.9691 -77.3935 30.5343 11.2008 -0.000204031 -5.86648e-06 -11.6438 1.50878 -10.299 1.49058 10.7828 -2.31696 0.186362 73.825 41.7906 -4.67193 4.9132e-06 3.06042e-06 11.5968 -1.37663 -15.4821 1.42438 2.1462 -5.48705 11.1859 -0.0113063 7.14133 -3.17094 -0.243969 -2.15326 6.10066 -2.4777e-07 0.260921 -3.0724e-07 1.44349 -3.09183 1.11501 0.04945 2.96091 -5.22748 -0.61644 -0.670372 2.79465 2.47341e-07 -0.054378 1.93248e-06 
-0.296476 104.081 2.86528 -0.758539 0.9174 -2.66035 -0.792762 -0.0369543 0.356964 -0.339262 -0.177229 0.91022 1.74384 -0.137505 1.27802 3.82654 8.00542 0.111656 -5.49926 -8.72237 -3.02958 -9.81974 -2.76475 -10.6592 -78.5486 29.657 14.0076 -0.000211342 4.90051e-06 -12.7531 2.36689 -9.79786 0.631716 10.779 -2.33246 0.0710036 75.6929 40.5753 -6.94652 1.47337e-05 2.12191e-06 11.6402 -2.17488 -16.629 3.0844 2.1737 -5.98438 11.1332 0.0484077 7.69655 -3.08959 -0.233345 -2.8858 6.09783 -9.38003e-09 0.402394 -7.04975e-06 1.58738 -3.65618 1.4733 -0.135107 3.62045 -5.39341 -0.465655 -1.57917 2.81496 6.2073e-08 0.25784 1.98011e-06 
-0.313057 103.991 3.06506 -0.797741 1.47386 -2.79125 -0.777206 0.00141101 0.356462 -0.334082 -0.141569 0.896577 1.75395 -0.101841 1.26143 3.81483 7.79086 0.119284 -5.56698 -8.92679 -3.0773 -9.70922 -2.86364 -10.0691 -79.6875 28.6492 16.6105 -0.000200176 7.42759e-07 -13.0906 2.23177 -9.56777 0.913039 11.0408 -2.35258 -0.328149 77.4954 38.5512 -9.14343 -1.35908e-05 -2.94069e-06 10.572 -3.0001 -16.5092 4.37814 2.33909 -7.1514 11.0755 0.122973 9.23007 -2.97536 -0.208857 -4.16379 6.09376 -2.31846e-07 0.390716 3.85281e-06 1.78971 -5.00824 1.8461 -0.285057 5.45489 -5.59417 -0.282703 -3.00588 2.83049 2.26227e-07 0.356371 -6.76788e-07 
-0.337504 103.85 3.19316 -0.877239 2.40555 -2.97809 -0.712804 0.0398012 0.355851 -0.338801 -0.116765 0.868606 1.75044 -0.0774164 1.23014 3.82067 7.44065 0.143749 -5.63824 -9.81861 -3.14267 -9.60825 -2.99439 -9.29 -80.7081 27.4005 18.7281 -0.000198687 1.27862e-06 -12.7473 1.15851 -9.93124 2.38965 11.2541 -2.39063 -0.803254 79.319 36.3189 -11.5658 4.365e-06 -1.81432e-07 9.575 -3.21778 -14.8416 3.8461 2.58266 -8.92757 10.9104 0.240588 11.0957 -2.65318 -0.225283 -5.52305 6.08688 -3.26791e-07 0.200003 6.63394e-09 2.04775 -6.72426 2.2133 -0.384362 7.07266 -5.73091 -0.163009 -3.92829 2.84634 -1.78891e-07 0.269235 -1.92391e-06 
-0.361824 103.693 3.20279 -1.00144 3.64986 -3.21679 -0.586131 0.149765 0.344177 -0.33022 -0.0307711 0.819717 1.75997 0.00729693 1.17665 3.84895 6.91734 0.186137 -5.70992 -10.9822 -3.17538 -9.58643 -3.0605 -8.90215 -81.5557 25.8577 20.5002 -0.000204132 5.77373e-06 -12.13 0.381302 -11.2327 3.60301 11.2685 -2.4375 -1.16231 80.9603 34.1274 -13.8322 -1.87084e-06 6.02232e-06 9.1146 -2.68115 -13.2075 2.32682 2.89092 -11.0198 10.7006 0.345214 12.7566 -2.1864 -0.27452 -6.5622 6.07682 1.34152e-07 0.0113085 1.67231e-06 2.36388 -8.6242 2.59153 -0.428925 8.2332 -5.78662 -0.115802 -4.45225 2.85571 1.50147e-08 0.181317 -2.37145e-06 
-0.386503 103.515 3.11387 -1.1711 5.10319 -3.46219 -0.4304 0.345085 0.340184 -0.273334 0.139753 0.770661 1.81786 0.176261 1.12101 3.85596 6.3231 0.234761 -5.70161 -11.8607 -3.19533 -9.59659 -3.05217 -8.97759 -82.5062 24.172 21.9303 -0.000213859 6.61805e-07 -11.3665 0.640563 -12.0896 3.40353 11.1293 -2.4758 -1.31844 82.1331 32.0952 -15.291 -4.44267e-06 -5.24429e-06 8.53721 -2.22834 -12.0121 1.68417 3.31512 -13.3503 10.5756 0.378482 14.3148 -1.75441 -0.30809 -7.35346 6.06805 1.2873e-07 -0.0691187 5.50584e-06 2.73855 -10.7242 3.01222 -0.413694 9.21957 -5.85016 -0.120039 -4.77238 2.86053 3.68039e-07 0.082331 2.12562e-07 
-0.415003 103.301 2.95977 -1.36226 6.85263 -3.68601 -0.274043 0.526293 0.320496 -0.182484 0.305782 0.70487 1.90929 0.340076 1.04882 3.84023 5.76034 0.304776 -5.65985 -12.3923 -3.0758 -9.61248 -3.0513 -8.99597 -83.4676 22.6589 22.4433 -0.000216412 6.32076e-06 -10.001 1.39537 -11.0366 2.97377 11.0337 -2.47159 -1.19646 82.8938 30.5698 -16.3558 -3.98096e-06 3.24113e-06 8.29906 -1.86868 -10.7296 1.46263 3.83948 -16.0449 10.5139 0.359261 15.8793 -1.35666 -0.327061 -8.01118 6.06048 2.32204e-07 -0.047086 4.29327e-06 3.13954 -13.2045 3.43272 -0.312486 10.2571 -5.90672 -0.16961 -5.05355 2.85955 -2.63849e-07 -0.0133458 -1.94223e-06 
-0.426054 103.026 2.74281 -1.54351 8.97792 -3.88184 -0.104204 0.644415 0.262639 -0.0874737 0.424832 0.603163 2.00365 0.455774 0.941924 3.82937 5.20012 0.419867 -5.62249 -12.506 -2.65776 -9.72394 -3.0801 -8.78233 -83.9584 21.4174 21.537 -0.000205112 4.07268e-06 -7.78005 1.84304 -9.61046 3.57743 10.9224 -2.45092 -0.932799 83.3431 30.1006 -17.0694 -2.23014e-05 -4.27842e-06 8.46156 -1.21647 -9.92645 1.10733 4.41773 -19.2468 10.4398 0.311066 17.5565 -0.900426 -0.336102 -8.59909 6.05268 -5.99401e-07 0.149371 -1.47308e-06 3.53052 -16.2699 3.76616 -0.118766 11.5893 -5.88043 -0.249735 -5.43512 2.85798 2.23631e-07 -0.0561301 -4.22265e-07 
-0.418543 102.606 2.41734 -1.72204 11.4616 -4.13527 0.101138 0.730981 0.185247 0.00613922 0.533362 0.470652 2.09561 0.560029 0.803998 3.76873 4.6523 0.57875 -5.48775 -12.0618 -1.99404 -9.88409 -3.0958 -8.64494 -83.8488 20.4466 19.4655 -0.000188124 -5.19372e-06 -5.2522 1.82782 -9.78063 4.86904 10.5532 -2.4514 -0.560775 83.4079 30.868 -16.7416 9.65739e-06 -4.00654e-06 8.1463 -0.748911 -10.0357 1.42644 5.23314 -23.2248 10.502 0.15323 19.9092 -0.368188 -0.583645 -9.32288 6.0285 -4.99111e-08 0.53551 -2.40817e-06 3.97068 -20.2224 4.02944 0.168555 13.7815 -5.69232 -0.351742 -6.1469 2.85727 2.40843e-07 -0.0956368 3.18853e-06 
-0.404959 101.875 1.97612 -1.93881 14.2016 -4.49767 0.304582 0.822687 0.192355 0.115369 0.666247 0.400494 2.20412 0.690477 0.728552 3.81847 4.16166 0.71113 -5.37858 -10.8054 -1.24476 -9.59988 -3.06806 -8.99929 -83.7701 20.0982 17.0261 -0.000209841 5.64074e-07 -3.19084 2.49583 -11.5952 4.65336 10.3372 -2.41487 -0.0352673 82.6109 32.3215 -15.4728 1.19423e-05 1.77554e-06 7.64844 -0.652686 -11.4416 2.62314 6.57142 -28.1893 10.9661 -0.126719 23.5632 0.206569 -1.61717 -10.0839 5.93142 3.40696e-07 0.985745 -4.09614e-06 4.56255 -25.3432 4.28851 0.586359 17.6019 -5.43701 -0.469868 -7.51736 2.86064 1.17325e-07 -0.267397 -8.5493e-07 
-0.36669 100.771 1.45839 -1.9823 17.2596 -5.0221 0.345272 0.831944 0.381704 0.164237 0.737208 0.491588 2.2563 0.763834 0.819359 4.1716 3.67278 0.771899 -5.56835 -8.90673 -0.466265 -8.79325 -3.01516 -9.80179 -83.7214 20.6037 14.6793 -0.00020252 2.91246e-07 -1.88028 3.82982 -14.0756 0.961908 10.7767 -2.30181 0.413979 80.3754 33.9737 -13.0308 5.65099e-06 -2.71967e-06 6.43508 -0.886405 -14.4102 4.85799 8.03092 -33.9467 11.6588 -0.425905 28.0528 1.10282 -2.0805 -11.1576 5.86484 1.45568e-06 1.1511 2.67816e-06 5.23239 -31.5536 4.63568 0.972062 22.8053 -5.19106 -0.513234 -9.48875 2.87991 5.84444e-07 -0.564521 3.22171e-06 
